<svg xmlns="http://www.w3.org/2000/svg" xmlns:xlink="http://www.w3.org/1999/xlink" width="932" height="430" viewBox="0 0 932 430" fill="none">
  <g clip-path="url(#clip-path-0_1)">
    <!-- 竖线 -->
    <path stroke="rgba(214, 147, 64, 1)" stroke-width="6" stroke-linecap="round" d="M64 19L64 411"></path>

    <!-- 横线 -->
    <path stroke="rgba(214, 147, 64, 1)" stroke-width="4" d="M64 215L901 215"></path>

    <!-- 右小圆 -->
    <path d="M89 215C89 228.807 77.8071 240 64 240L64 190C77.8071 190 89 201.193 89 215Z" stroke="rgba(214, 147, 64, 1)" stroke-width="1.5"></path>

    <!-- 左小圆 -->
    <path 
      d="M39 215C39 228.807 50.1929 240 64 240L64 190C50.1929 190 39 201.193 39 215Z"   
      fill="#D69340"
      class="jump">
    </path>

    <g mask="url(#mask-1_5)">
      <path fill="rgba(214, 147, 64, 1)" d="M189.097 225.135M189.097 225.135Q188.895 227.659 188.593 230.166L185.614 229.808Q185.909 227.36 186.106 224.896L189.097 225.135ZM187.885 235.188M187.885 235.188Q187.482 237.676 186.98 240.144L184.04 239.546Q184.53 237.138 184.923 234.709L187.885 235.188ZM185.866 245.102M185.866 245.102Q185.262 247.557 184.559 249.985L181.677 249.15Q182.364 246.781 182.953 244.385L185.866 245.102ZM183.052 254.816M183.052 254.816Q182.249 257.219 181.348 259.587L178.544 258.521Q179.423 256.209 180.207 253.865L183.052 254.816ZM179.458 264.271M179.458 264.271Q178.462 266.602 177.371 268.893L174.663 267.603Q175.727 265.368 176.7 263.092L179.458 264.271ZM175.106 273.413M175.106 273.413Q173.925 275.653 172.655 277.844L170.06 276.34Q171.299 274.201 172.451 272.015L175.106 273.413ZM170.029 282.172M170.029 282.172Q168.673 284.307 167.233 286.387L164.767 284.678Q166.173 282.648 167.496 280.564L170.029 282.172ZM164.266 290.49M164.266 290.49Q162.743 292.51 161.14 294.467L158.819 292.566Q160.384 290.655 161.87 288.684L164.266 290.49ZM157.854 298.319M157.854 298.319Q156.173 300.211 154.418 302.034L152.256 299.953Q153.97 298.173 155.611 296.326L157.854 298.319ZM150.835 305.608M150.835 305.608Q149.008 307.36 147.112 309.037L145.125 306.79Q146.975 305.153 148.759 303.443L150.835 305.608ZM143.254 312.314M143.254 312.314Q141.292 313.913 139.27 315.431L137.469 313.032Q139.444 311.55 141.358 309.989L143.254 312.314ZM135.16 318.39M135.16 318.39Q133.077 319.826 130.939 321.176L129.337 318.64Q131.423 317.322 133.457 315.92L135.16 318.39ZM126.606 323.793M126.606 323.793Q124.411 325.059 122.17 326.233L120.777 323.576Q122.966 322.429 125.107 321.195L126.606 323.793ZM117.644 328.49M117.644 328.49Q115.35 329.576 113.016 330.567L111.844 327.805Q114.121 326.838 116.36 325.778L117.644 328.49ZM108.33 332.446M108.33 332.446Q105.96 333.341 103.554 334.139L102.609 331.292Q104.957 330.513 107.27 329.639L108.33 332.446ZM98.7213 335.635M98.7213 335.635Q96.2905 336.333 93.8336 336.932L93.1229 334.018Q95.5209 333.433 97.8929 332.751L98.7213 335.635ZM88.8762 338.034M88.8762 338.034Q86.4066 338.531 83.9163 338.928L83.4439 335.966Q85.8737 335.578 88.2848 335.093L88.8762 338.034ZM78.8911 339.626M78.8911 339.626Q76.3842 339.922 73.8621 340.118L73.6296 337.127Q76.0913 336.936 78.5388 336.646L78.8911 339.626ZM68.8172 340.409M68.8172 340.409Q66.413 340.5 64 340.5L63.723 340.5L63.7263 337.5L64 337.5Q66.3564 337.5 68.704 337.411L68.8172 340.409ZM58.6309 340.387M58.6309 340.387Q56.1056 340.281 53.5917 340.074L53.8372 337.085Q56.2913 337.286 58.7571 337.39L58.6309 340.387ZM48.5586 339.559M48.5586 339.559Q46.0408 339.25 43.5403 338.84L44.0258 335.88Q46.4662 336.28 48.924 336.582L48.5586 339.559ZM38.5859 337.925M38.5859 337.925Q36.0957 337.413 33.6304 336.8L34.354 333.889Q36.7606 334.487 39.1903 334.987L38.5859 337.925ZM28.7512 335.482M28.7512 335.482Q26.3208 334.772 23.9216 333.964L24.8791 331.121Q27.2206 331.909 29.5923 332.602L28.7512 335.482ZM19.1554 332.25M19.1554 332.25Q16.7962 331.347 14.4749 330.349L15.6598 327.593Q17.9256 328.567 20.2276 329.448L19.1554 332.25ZM9.85828 328.253M9.85828 328.253Q7.57881 327.161 5.34363 325.977L6.74774 323.326Q8.92903 324.481 11.1541 325.547L9.85828 328.253ZM0.916985 323.517M0.916985 323.517Q-1.26955 322.243 -3.40406 320.881L-1.79065 318.352Q0.292957 319.681 2.42711 320.925L0.916985 323.517ZM-7.61333 318.075M-7.61333 318.075Q-9.6909 316.629 -11.7103 315.1L-9.89878 312.708Q-7.92727 314.202 -5.89948 315.613L-7.61333 318.075ZM-15.6801 311.965M-15.6801 311.965Q-17.6354 310.357 -19.5246 308.671L-17.5272 306.432Q-15.6828 308.078 -13.7742 309.648L-15.6801 311.965ZM-23.2325 305.226M-23.2325 305.226Q-25.0515 303.467 -26.799 301.636L-24.6288 299.565Q-22.9229 301.352 -21.147 303.07L-23.2325 305.226ZM-30.2193 297.906M-30.2193 297.906Q-31.8927 296.005 -33.4878 294.041L-31.1586 292.15Q-29.6012 294.068 -27.9678 295.923L-30.2193 297.906ZM-36.5967 290.05M-36.5967 290.05Q-38.1132 288.02 -39.5461 285.932L-37.0726 284.235Q-35.6737 286.273 -34.1935 288.254L-36.5967 290.05ZM-42.3233 281.706M-42.3233 281.706Q-43.6713 279.562 -44.9311 277.366L-42.3289 275.873Q-41.0992 278.017 -39.7836 280.109L-42.3233 281.706ZM-47.3608 272.926M-47.3608 272.926Q-48.5303 270.682 -49.6074 268.394L-46.8932 267.117Q-45.8419 269.349 -44.7005 271.539L-47.3608 272.926ZM-51.6744 263.762M-51.6744 263.762Q-52.6563 261.436 -53.5429 259.072L-50.734 258.018Q-49.8687 260.325 -48.9104 262.596L-51.6744 263.762ZM-55.2261 254.291M-55.2261 254.291Q-56.0173 251.889 -56.7102 249.457L-53.8251 248.635Q-53.1488 251.009 -52.3767 253.353L-55.2261 254.291ZM-57.9972 244.565M-57.9972 244.565Q-58.5929 242.099 -59.0881 239.608L-56.1457 239.023Q-55.6624 241.454 -55.0811 243.861L-57.9972 244.565ZM-59.9713 234.644M-59.9713 234.644Q-60.3652 232.139 -60.6579 229.616L-57.6779 229.27Q-57.3922 231.733 -57.0077 234.178L-59.9713 234.644ZM-61.1391 224.589M-61.1391 224.589Q-61.3294 222.071 -61.4194 219.541L-58.4213 219.434Q-58.3334 221.904 -58.1476 224.363L-61.1391 224.589ZM-61.4988 214.443M-61.4988 214.443Q-61.4877 211.894 -61.3753 209.355L-58.3782 209.488Q-58.488 211.967 -58.4988 214.456L-61.4988 214.443ZM-61.0518 204.319M-61.0518 204.319Q-60.8389 201.794 -60.5253 199.284L-57.5484 199.656Q-57.8546 202.106 -58.0624 204.571L-61.0518 204.319ZM-59.7955 194.269M-59.7955 194.269Q-59.3819 191.781 -58.8688 189.314L-55.9317 189.925Q-56.4325 192.333 -56.8361 194.761L-59.7955 194.269ZM-57.7333 184.363M-57.7333 184.363Q-57.1183 181.911 -56.4046 179.488L-53.5267 180.335Q-54.2233 182.7 -54.8235 185.093L-57.7333 184.363ZM-54.8755 174.66M-54.8755 174.66Q-54.062 172.262 -53.1515 169.898L-50.3521 170.977Q-51.2406 173.283 -52.0345 175.624L-54.8755 174.66ZM-51.2399 165.221M-51.2399 165.221Q-50.2336 162.895 -49.1332 160.61L-46.4303 161.911Q-47.5043 164.141 -48.4864 166.412L-51.2399 165.221ZM-46.8481 156.101M-46.8481 156.101Q-45.6579 153.865 -44.3775 151.679L-41.7887 153.194Q-43.0384 155.329 -44.2001 157.511L-46.8481 156.101ZM-41.7329 147.364M-41.7329 147.364Q-40.3679 145.234 -38.9174 143.16L-36.459 144.88Q-37.8748 146.904 -39.2072 148.983L-41.7329 147.364ZM-35.9329 139.07M-35.9329 139.07Q-34.4014 137.058 -32.7897 135.107L-30.4771 137.018Q-32.0505 138.922 -33.5455 140.887L-35.9329 139.07ZM-29.4869 131.27M-29.4869 131.27Q-27.7978 129.385 -26.0343 127.57L-23.8823 129.66Q-25.6039 131.432 -27.2528 133.272L-29.4869 131.27ZM-22.4367 124.011M-22.4367 124.011Q-20.6017 122.267 -18.6986 120.599L-16.7208 122.854Q-18.5787 124.483 -20.3701 126.186L-22.4367 124.011ZM-14.8264 117.339M-14.8264 117.339Q-12.8582 115.748 -10.8285 114.238L-9.03799 116.646Q-11.0193 118.119 -12.9408 119.672L-14.8264 117.339ZM-6.7045 111.298M-6.7045 111.298Q-4.61588 109.871 -2.47261 108.53L-0.881443 111.074Q-2.97355 112.382 -5.0123 113.775L-6.7045 111.298ZM1.87331 105.932M1.87331 105.932Q4.07199 104.677 6.31818 103.512L7.69891 106.176Q5.50658 107.312 3.36055 108.537L1.87331 105.932ZM10.8554 101.275M10.8554 101.275Q13.1528 100.2 15.4908 99.2192L16.6513 101.986Q14.3693 102.943 12.1273 103.992L10.8554 101.275ZM20.186 97.3606M20.186 97.3606Q22.5619 96.4753 24.9716 95.6876L25.9037 98.5391Q23.5521 99.3079 21.2334 100.172L20.186 97.3606ZM29.8073 94.2148M29.8073 94.2148Q32.2419 93.5269 34.7035 92.9382L35.4012 95.8559Q32.9989 96.4304 30.6229 97.1017L29.8073 94.2148ZM39.6608 91.8588M39.6608 91.8588Q42.1343 91.3726 44.628 90.9862L45.0874 93.9508Q42.6534 94.328 40.2393 94.8025L39.6608 91.8588ZM49.66 90.3105M49.66 90.3105Q52.1652 90.0254 54.6848 89.8405L54.9044 92.8325Q52.4447 93.013 49.9992 93.2912L49.66 90.3105ZM59.7355 89.5711M59.7355 89.5711Q61.8645 89.5 64 89.5L64.8306 89.5027L64.8208 92.5027L64 92.5Q61.9146 92.5 59.8357 92.5694L59.7355 89.5711ZM69.9206 89.6372M69.9206 89.6372Q72.4433 89.7544 74.9539 89.9715L74.6954 92.9604Q72.2443 92.7484 69.7814 92.634L69.9206 89.6372ZM79.9911 90.5094M79.9911 90.5094Q82.5058 90.8292 85.0024 91.2499L84.504 94.2082Q82.0671 93.7976 79.6126 93.4854L79.9911 90.5094ZM89.9574 92.188M89.9574 92.188Q92.4435 92.7108 94.9049 93.3341L94.1684 96.2423Q91.7663 95.634 89.34 95.1237L89.9574 92.188ZM99.7755 94.6733M99.7755 94.6733Q102.204 95.3943 104.602 96.2136L103.632 99.0524Q101.292 98.2528 98.9217 97.5492L99.7755 94.6733ZM109.358 97.9477M109.358 97.9477Q111.715 98.8614 114.033 99.8702L112.836 102.621Q110.573 101.636 108.274 100.745L109.358 97.9477ZM118.638 101.987M118.638 101.987Q120.913 103.088 123.142 104.281L121.726 106.926Q119.55 105.762 117.331 104.687L118.638 101.987ZM127.559 106.762M127.559 106.762Q129.739 108.045 131.868 109.416L130.243 111.938Q128.166 110.6 126.038 109.348L127.559 106.762ZM136.066 112.241M136.066 112.241Q138.137 113.696 140.149 115.234L138.327 117.618Q136.363 116.116 134.341 114.696L136.066 112.241ZM144.105 118.386M144.105 118.386Q146.053 120.003 147.935 121.697L145.928 123.927Q144.091 122.273 142.189 120.695L144.105 118.386ZM151.628 125.158M151.628 125.158Q153.439 126.925 155.179 128.763L152.999 130.825Q151.302 129.031 149.533 127.305L151.628 125.158ZM158.583 132.509M158.583 132.509Q160.248 134.416 161.834 136.388L159.497 138.268Q157.948 136.343 156.323 134.482L158.583 132.509ZM164.926 140.393M164.926 140.393Q166.433 142.429 167.858 144.524L165.377 146.21Q163.986 144.165 162.515 142.178L164.926 140.393ZM170.616 148.761M170.616 148.761Q171.955 150.912 173.205 153.113L170.596 154.595Q169.376 152.446 168.069 150.347L170.616 148.761ZM175.614 157.562M175.614 157.562Q176.774 159.812 177.841 162.105L175.122 163.371Q174.08 161.132 172.948 158.937L175.614 157.562ZM179.887 166.744M179.887 166.744Q180.859 169.076 181.735 171.444L178.922 172.485Q178.066 170.174 177.118 167.898L179.887 166.744ZM183.398 176.235M183.398 176.235Q184.178 178.638 184.86 181.072L181.971 181.881Q181.306 179.506 180.544 177.16L183.398 176.235ZM186.126 185.972M186.126 185.972Q186.71 188.439 187.194 190.929L184.249 191.502Q183.777 189.071 183.206 186.664L186.126 185.972ZM188.056 195.9M188.056 195.9Q188.439 198.409 188.721 200.936L185.739 201.268Q185.464 198.802 185.09 196.353L188.056 195.9ZM189.179 205.958M189.179 205.958Q189.359 208.48 189.438 211.012L186.439 211.106Q186.362 208.633 186.187 206.172L189.179 205.958ZM189.5 215M189.5 215Q189.5 217.551 189.399 220.093L186.401 219.974Q186.5 217.491 186.5 215L189.5 215Z">
        <animateTransform
          attributeName="transform"
          attributeType="XML"
          type="rotate"
          from="0 64 215"
          to="360 64 215"
          dur="10s"
          repeatCount="indefinite" /> 
      </path>
    </g>
  </g>

  <defs>
    <style>
      /* <![CDATA[ */
      @keyframes jump-left {
        0%, 70% {
          transform: translateX(0);
        }
        35% {
          transform: translateX(-15px);
        }
      }

      .jump {
        animation: jump-left 1s ease-in infinite;
      }
      /* ]]> */
    </style>

    <clipPath id="clip-path-0_1">
      <path d="M0 430L932 430L932 0L0 0L0 430Z" fill="white"/>
    </clipPath>

    <mask id="mask-1_5" style="mask-type:alpha" maskUnits="userSpaceOnUse">
      <path fill="white" d="M63 91L188 91L188 339L63 339L63 91Z"></path>
    </mask>
  </defs>
</svg>
