<svg xmlns="http://www.w3.org/2000/svg" xmlns:xlink="http://www.w3.org/1999/xlink" width="800" height="800" viewBox="0 0 800 800" fill="none">
<circle cx="400" cy="400" r="395" stroke="rgba(255, 255, 255, 1)" stroke-width="10"   >
</circle>
<path d="M386.034 386.324L400.083 348.859L414.132 386.324L451.57 400.379L414.122 414.435L400.083 451.89L386.034 414.425L348.586 400.379L386.034 386.324ZM370.955 371.239L293.283 400.379L370.955 429.52L400.083 507.228L429.21 429.52L506.883 400.379L429.21 371.239L400.083 293.531L370.955 371.239Z"   fill="url(#linear_fill_teq664rGtOFv1RljgT-xD)" >
</path>
<path d="M395.864 558.673C366.267 593.419 323.835 608.036 268.545 602.532C275.801 592.924 290.01 575.975 335.626 560.261C348.264 555.907 368.344 555.381 395.856 558.676L395.864 558.673ZM313.271 553.647C273.977 576.856 229.096 576.871 178.63 553.669C188.606 546.951 207.565 535.535 255.815 535.525C269.159 535.522 288.315 541.561 313.271 553.647ZM240.299 504.536C191.859 522.074 144.461 510.258 98.1027 469.113C110.657 463.671 134.097 454.964 185.042 467.66C199.148 471.174 217.564 483.471 240.299 504.536ZM200.098 441.196C149.689 451.817 104.402 433.525 64.2255 386.327C77.4219 382.68 101.843 377.318 150.519 396.98C164 402.423 180.525 417.17 200.098 441.196ZM193.718 382.683C142.237 380.792 102.722 352.079 75.1696 296.57C88.845 296.221 113.822 296.925 156.312 327.785C168.064 336.326 180.535 354.62 193.718 382.683ZM177.279 314.717C134.564 301.677 113.283 268.906 113.445 216.403C125.166 219.171 145.976 225.32 168.844 260.545C175.178 270.297 177.991 288.357 177.279 314.717ZM209.039 265.17C173.558 243.695 164.721 210.672 182.512 166.095C192.512 171.278 209.878 181.579 219.382 217.07C222.014 226.906 218.564 242.944 209.039 265.17ZM349.151 511.94C316.738 531.089 279.717 531.095 238.092 511.967C246.328 506.409 261.955 497.003 301.76 496.998C312.771 496.996 328.573 501.979 349.151 511.94ZM306.887 474.708C271.882 488.552 235.325 482.772 197.201 457.36C206.209 453.163 223.118 446.317 262.416 452.538C273.303 454.257 288.121 461.644 306.887 474.708ZM260.392 430.341C231.099 435.814 203.55 425.801 177.767 400.293C185.402 398.392 199.57 395.626 229.18 406.4C237.375 409.373 247.78 417.358 260.392 430.341ZM249.821 380.308C220.104 378.017 196.098 361.204 177.796 329.887C185.658 330.022 200.066 331.026 225.875 349.087C233.018 354.088 241 364.499 249.821 380.308ZM232.505 331.832C204.341 326.284 189.652 306.773 188.421 273.317C196.117 274.312 209.828 276.892 225.635 297.853C230.005 303.663 232.298 314.988 232.501 331.822L232.505 331.832Z"   fill="url(#linear_fill_5_1)" >
</path>
<path d="M407.665 558.673C437.262 593.419 479.695 608.036 534.984 602.532C527.729 592.924 513.519 575.975 467.903 560.261C455.265 555.907 435.185 555.381 407.673 558.676L407.665 558.673ZM490.258 553.647C529.552 576.856 574.433 576.871 624.899 553.669C614.923 546.951 595.965 535.535 547.714 535.525C534.37 535.522 515.214 541.561 490.258 553.647ZM563.23 504.536C611.671 522.074 659.068 510.258 705.426 469.113C692.872 463.671 669.432 454.964 618.487 467.66C604.381 471.174 585.965 483.471 563.23 504.536ZM603.432 441.196C653.84 451.817 699.127 433.525 739.304 386.327C726.107 382.68 701.687 377.318 653.01 396.98C639.529 402.423 623.004 417.17 603.432 441.196ZM609.811 382.683C661.292 380.792 700.807 352.079 728.359 296.57C714.684 296.221 689.707 296.925 647.217 327.785C635.465 336.326 622.994 354.62 609.811 382.683ZM626.251 314.717C668.965 301.677 690.246 268.906 690.085 216.403C678.363 219.171 657.553 225.32 634.685 260.545C628.351 270.297 625.539 288.357 626.251 314.717ZM594.49 265.17C629.971 243.695 638.808 210.673 621.017 166.095C611.017 171.278 593.651 181.579 584.147 217.07C581.515 226.906 584.966 242.944 594.49 265.17ZM454.378 511.94C486.791 531.089 523.812 531.095 565.437 511.967C557.201 506.409 541.574 497.003 501.77 496.998C490.758 496.996 474.956 501.979 454.378 511.94ZM496.643 474.708C531.647 488.553 568.204 482.772 606.328 457.36C597.32 453.163 580.411 446.317 541.113 452.538C530.227 454.257 515.408 461.644 496.643 474.708ZM543.137 430.341C572.43 435.814 599.979 425.801 625.762 400.293C618.127 398.392 603.959 395.626 574.349 406.4C566.155 409.373 555.749 417.358 543.137 430.341ZM553.709 380.308C583.425 378.017 607.431 361.204 625.733 329.887C617.871 330.022 603.463 331.026 577.654 349.087C570.512 354.088 562.529 364.499 553.709 380.308ZM571.024 331.832C599.188 326.284 613.877 306.773 615.108 273.317C607.412 274.312 593.701 276.892 577.894 297.853C573.524 303.663 571.231 314.988 571.028 331.822L571.024 331.832Z"   fill="url(#linear_fill_6_1)" >
</path>
<g >
<text transform="translate(191, 615)">
<tspan x="111.35400390625" y="55.06884765625" font-size="30" line-height="0"  fill="#FFFFFF"  font-family="1.003;AOEF;Audiowide-Regular" letter-spacing="0" >
Wonderland</tspan>
</text>
</g>
<defs>
<linearGradient id="linear_fill_teq664rGtOFv1RljgT-xD" x1="400.08270263671875" y1="507.22801971435547" x2="400.08270263671875" y2="293.53070068359375" gradientUnits="userSpaceOnUse">
<stop offset="0.3264" stop-color="#B8C0D4"  />
<stop offset="1" stop-color="#FFFFFF"  />
</linearGradient>
<linearGradient id="linear_fill_5_1" x1="401.5291519165039" y1="630.3930969238281" x2="131.20606994628906" y2="179.78189086914062" gradientUnits="userSpaceOnUse">
<stop offset="0" stop-color="#B8C0D4"  />
<stop offset="1" stop-color="#E4EFE9"  />
</linearGradient>
<linearGradient id="linear_fill_6_1" x1="401.99996185302734" y1="630.3931121826172" x2="672.3230590820312" y2="179.7819061279297" gradientUnits="userSpaceOnUse">
<stop offset="0" stop-color="#B8C0D4"  />
<stop offset="1" stop-color="#E4EFE9"  />
</linearGradient>
</defs>
</svg>
