<svg xmlns="http://www.w3.org/2000/svg" xmlns:xlink="http://www.w3.org/1999/xlink" width="800" height="800" viewBox="0 0 800 800" fill="none">
<rect x="0" y="0" width="0" height="0" fill="rgba(49, 53, 65, 1)" />
<circle cx="400" cy="400" r="395" stroke="rgba(255, 255, 255, 1)" stroke-width="10"   >
</circle>
<path d="M386.034 386.324L400.083 348.859L414.132 386.324L451.57 400.379L414.122 414.435L400.083 451.89L386.034 414.425L348.586 400.379L386.034 386.324ZM370.955 371.239L293.283 400.379L370.955 429.52L400.083 507.228L429.21 429.52L506.883 400.379L429.21 371.239L400.083 293.531L370.955 371.239Z"   fill="url(#linear_fill_teq664rGtOFv1RljgT-xD)" >
</path>
<path d="M406.136 558.673C435.733 593.419 478.165 608.036 533.455 602.533C526.199 592.924 511.99 575.975 466.374 560.261C453.736 555.907 433.655 555.381 406.144 558.676L406.136 558.673ZM488.729 553.647C528.022 576.856 572.904 576.872 623.37 553.669C613.393 546.951 594.435 535.535 546.185 535.525C532.84 535.522 513.685 541.561 488.729 553.647ZM561.701 504.536C610.141 522.074 657.539 510.258 703.897 469.113C691.343 463.671 667.903 454.964 616.958 467.66C602.852 471.174 584.436 483.471 561.701 504.536ZM601.902 441.196C652.311 451.817 697.598 433.525 737.774 386.327C724.578 382.68 700.157 377.318 651.481 396.981C638 402.423 621.475 417.17 601.902 441.196ZM608.282 382.683C659.763 380.792 699.278 352.079 726.83 296.57C713.155 296.221 688.178 296.925 645.688 327.785C633.936 336.326 621.465 354.62 608.282 382.683ZM624.721 314.717C667.436 301.677 688.717 268.906 688.555 216.403C676.834 219.171 656.024 225.32 633.156 260.545C626.822 270.297 624.009 288.357 624.721 314.717ZM592.961 265.17C628.442 243.695 637.279 210.672 619.488 166.095C609.488 171.278 592.122 181.579 582.618 217.07C579.986 226.906 583.436 242.944 592.961 265.17ZM452.849 511.94C485.262 531.089 522.283 531.095 563.907 511.968C555.672 506.409 540.045 497.003 500.24 496.998C489.229 496.996 473.427 501.979 452.849 511.94ZM495.113 474.708C530.118 488.553 566.675 482.772 604.799 457.36C595.791 453.163 578.882 446.317 539.584 452.538C528.697 454.257 513.879 461.644 495.113 474.708ZM541.608 430.341C570.901 435.814 598.45 425.801 624.233 400.293C616.598 398.392 602.43 395.626 572.82 406.4C564.625 409.373 554.22 417.358 541.608 430.341ZM552.179 380.308C581.896 378.017 605.902 361.204 624.204 329.887C616.342 330.022 601.934 331.026 576.125 349.087C568.982 354.088 560.999 364.499 552.179 380.308ZM569.495 331.832C597.659 326.284 612.348 306.773 613.579 273.317C605.883 274.312 592.172 276.892 576.365 297.853C571.995 303.663 569.701 314.988 569.499 331.822L569.495 331.832Z"   fill="url(#linear_fill_4_5)" >
</path>
<path d="M395.864 558.673C366.267 593.419 323.835 608.036 268.545 602.532C275.801 592.924 290.01 575.975 335.626 560.261C348.264 555.907 368.344 555.381 395.856 558.676L395.864 558.673ZM313.271 553.647C273.977 576.856 229.096 576.871 178.63 553.669C188.606 546.951 207.565 535.535 255.815 535.525C269.159 535.522 288.315 541.561 313.271 553.647ZM240.299 504.536C191.859 522.074 144.461 510.258 98.1027 469.113C110.657 463.671 134.097 454.964 185.042 467.66C199.148 471.174 217.564 483.471 240.299 504.536ZM200.098 441.196C149.689 451.817 104.402 433.525 64.2255 386.327C77.4219 382.68 101.843 377.318 150.519 396.98C164 402.423 180.525 417.17 200.098 441.196ZM193.718 382.683C142.237 380.792 102.722 352.079 75.1696 296.57C88.845 296.221 113.822 296.925 156.312 327.785C168.064 336.326 180.535 354.62 193.718 382.683ZM177.279 314.717C134.564 301.677 113.283 268.906 113.445 216.403C125.166 219.171 145.976 225.32 168.844 260.545C175.178 270.297 177.991 288.357 177.279 314.717ZM209.039 265.17C173.558 243.695 164.721 210.672 182.512 166.095C192.512 171.278 209.878 181.579 219.382 217.07C222.014 226.906 218.564 242.944 209.039 265.17ZM349.151 511.94C316.738 531.089 279.717 531.095 238.092 511.967C246.328 506.409 261.955 497.003 301.76 496.998C312.771 496.996 328.573 501.979 349.151 511.94ZM306.887 474.708C271.882 488.552 235.325 482.772 197.201 457.36C206.209 453.163 223.118 446.317 262.416 452.538C273.303 454.257 288.121 461.644 306.887 474.708ZM260.392 430.341C231.099 435.814 203.55 425.801 177.767 400.293C185.402 398.392 199.57 395.626 229.18 406.4C237.375 409.373 247.78 417.358 260.392 430.341ZM249.821 380.308C220.104 378.017 196.098 361.204 177.796 329.887C185.658 330.022 200.066 331.026 225.875 349.087C233.018 354.088 241 364.499 249.821 380.308ZM232.505 331.832C204.341 326.284 189.652 306.773 188.421 273.317C196.117 274.312 209.828 276.892 225.635 297.853C230.005 303.663 232.298 314.988 232.501 331.822L232.505 331.832Z"   fill="url(#linear_fill_5_1)" >
</path>
<g >
<text transform="translate(191, 615)">
<tspan x="88.76611328125" y="55.80859375" font-size="30" line-height="0"  fill="#FFFFFF"  font-family="FontForge 2.0 : Monoton : 19-8-2011∞Version 1.000∞Monoton∞Regular" letter-spacing="0" >
Wonderland</tspan>
</text>
</g>
<defs>
<linearGradient id="linear_fill_teq664rGtOFv1RljgT-xD" x1="400.08270263671875" y1="507.22801971435547" x2="400.08270263671875" y2="293.53070068359375" gradientUnits="userSpaceOnUse">
<stop offset="0.3264" stop-color="#2C2C2C"  />
<stop offset="1" stop-color="#2C2C2C" stop-opacity="0" />
</linearGradient>
<linearGradient id="linear_fill_4_5" x1="522.199462890625" y1="617.0664367675781" x2="723.7821350097656" y2="211.8433837890625" gradientUnits="userSpaceOnUse">
<stop offset="0" stop-color="#263642"  />
<stop offset="1" stop-color="#D7D2CC" stop-opacity="0" />
</linearGradient>
<linearGradient id="linear_fill_5_1" x1="279.80039978027344" y1="617.0663452148438" x2="78.2177734375" y2="211.84336853027344" gradientUnits="userSpaceOnUse">
<stop offset="0" stop-color="#263642"  />
<stop offset="1" stop-color="#D7D2CC" stop-opacity="0" />
</linearGradient>
</defs>
</svg>
