<svg xmlns="http://www.w3.org/2000/svg" xmlns:xlink="http://www.w3.org/1999/xlink" width="625" height="230" viewBox="0 0 625 230" fill="none">
<path     fill="#FFFFFF"  d="M0 230L625 230L625 0L0 0L0 230Z">
</path>
<path    stroke="rgba(214, 147, 64, 1)" stroke-width="5"    d="M17 21L117 21">
</path>
<g >
<path     fill="#D69340"  d="M23.44 82.4L30.68 82.4L33.92 67.72C34.36 65.44 34.8 63.16 35.24 60.92L35.4 60.92C35.72 63.16 36.16 65.44 36.64 67.72L39.96 82.4L47.32 82.4L52.8 52.76L47.2 52.76L44.84 67.24C44.4 70.32 43.96 73.48 43.52 76.68L43.32 76.68C42.68 73.48 42.12 70.28 41.44 67.24L38 52.76L32.92 52.76L29.52 67.24C28.88 70.32 28.24 73.48 27.64 76.68L27.48 76.68C27.04 73.48 26.56 70.36 26.08 67.24L23.8 52.76L17.76 52.76L23.44 82.4ZM28.36 140.88C30.32 140.88 31.88 140.4 33.12 140.04L32.12 135.76C31.52 136 30.64 136.24 29.92 136.24C27.92 136.24 26.84 135.04 26.84 132.48L26.84 122.56L32.4 122.56L32.4 117.92L26.84 117.92L26.84 111.88L22 111.88L21.32 117.92L17.84 118.2L17.84 122.56L21 122.56L21 132.52C21 137.48 23.04 140.88 28.36 140.88ZM23.44 198.24L30.68 198.24L33.92 183.56C34.36 181.28 34.8 179 35.24 176.76L35.4 176.76C35.72 179 36.16 181.28 36.64 183.56L39.96 198.24L47.32 198.24L52.8 168.6L47.2 168.6L44.84 183.08C44.4 186.16 43.96 189.32 43.52 192.52L43.32 192.52C42.68 189.32 42.12 186.12 41.44 183.08L38 168.6L32.92 168.6L29.52 183.08C28.88 186.16 28.24 189.32 27.64 192.52L27.48 192.52C27.04 189.32 26.56 186.2 26.08 183.08L23.8 168.6L17.76 168.6L23.44 198.24ZM145.782 198.24L156.342 198.24C162.862 198.24 167.782 195.48 167.782 189.52C167.782 185.56 165.462 183.28 162.262 182.52L162.262 182.36C164.782 181.44 166.302 178.68 166.302 175.92C166.302 170.4 161.662 168.6 155.582 168.6L145.782 168.6L145.782 198.24ZM151.702 180.68L151.702 173.16L155.222 173.16C158.782 173.16 160.542 174.2 160.542 176.8C160.542 179.16 158.942 180.68 155.182 180.68L151.702 180.68ZM151.702 193.68L151.702 185.04L155.822 185.04C159.902 185.04 162.022 186.28 162.022 189.16C162.022 192.24 159.822 193.68 155.822 193.68L151.702 193.68Z">
</path>
<path     fill="#000000"  d="M66.52 82.96C69.28 82.96 72.12 82 74.32 80.48L72.32 76.88C70.68 77.88 69.12 78.4 67.32 78.4C63.96 78.4 61.56 76.52 61.08 72.88L74.88 72.88C75.04 72.32 75.16 71.24 75.16 70.16C75.16 63.92 71.96 59.44 65.8 59.44C60.48 59.44 55.36 63.96 55.36 71.2C55.36 78.6 60.24 82.96 66.52 82.96ZM60.96 68.92C61.44 65.68 63.52 64 65.88 64C68.8 64 70.12 65.92 70.12 68.92L60.96 68.92ZM85.56 82.96C86.92 82.96 87.88 82.72 88.56 82.44L87.84 78.08C87.44 78.16 87.28 78.16 87.04 78.16C86.48 78.16 85.88 77.72 85.88 76.36L85.88 50.48L80 50.48L80 76.12C80 80.28 81.44 82.96 85.56 82.96ZM102.12 82.96C104.6 82.96 107.32 82.12 109.44 80.24L107.12 76.36C105.88 77.4 104.4 78.16 102.76 78.16C99.52 78.16 97.2 75.44 97.2 71.2C97.2 67 99.52 64.24 102.96 64.24C104.2 64.24 105.24 64.76 106.36 65.68L109.16 61.96C107.52 60.48 105.4 59.44 102.64 59.44C96.56 59.44 91.2 63.76 91.2 71.2C91.2 78.64 95.96 82.96 102.12 82.96ZM123.04 82.96C128.64 82.96 133.8 78.64 133.8 71.2C133.8 63.76 128.64 59.44 123.04 59.44C117.4 59.44 112.28 63.76 112.28 71.2C112.28 78.64 117.4 82.96 123.04 82.96ZM123.04 78.16C119.96 78.16 118.28 75.44 118.28 71.2C118.28 67 119.96 64.24 123.04 64.24C126.08 64.24 127.8 67 127.8 71.2C127.8 75.44 126.08 78.16 123.04 78.16ZM138.72 82.4L144.6 82.4L144.6 67C146.16 65.28 147.6 64.48 148.88 64.48C151.04 64.48 152.04 65.68 152.04 69.16L152.04 82.4L157.88 82.4L157.88 67C159.48 65.28 160.92 64.48 162.2 64.48C164.32 64.48 165.32 65.68 165.32 69.16L165.32 82.4L171.16 82.4L171.16 68.44C171.16 62.8 169 59.44 164.24 59.44C161.36 59.44 159.16 61.2 157.08 63.36C156.04 60.88 154.16 59.44 150.96 59.44C148.04 59.44 145.96 61.04 144.08 63L143.96 63L143.52 60L138.72 60L138.72 82.4ZM187.04 82.96C189.8 82.96 192.64 82 194.84 80.48L192.84 76.88C191.2 77.88 189.64 78.4 187.84 78.4C184.48 78.4 182.08 76.52 181.6 72.88L195.4 72.88C195.56 72.32 195.68 71.24 195.68 70.16C195.68 63.92 192.48 59.44 186.32 59.44C181 59.44 175.88 63.96 175.88 71.2C175.88 78.6 180.76 82.96 187.04 82.96ZM181.48 68.92C181.96 65.68 184.04 64 186.4 64C189.32 64 190.64 65.92 190.64 68.92L181.48 68.92ZM46.36 140.88C51.96 140.88 57.12 136.56 57.12 129.12C57.12 121.68 51.96 117.36 46.36 117.36C40.72 117.36 35.6 121.68 35.6 129.12C35.6 136.56 40.72 140.88 46.36 140.88ZM46.36 136.08C43.28 136.08 41.6 133.36 41.6 129.12C41.6 124.92 43.28 122.16 46.36 122.16C49.4 122.16 51.12 124.92 51.12 129.12C51.12 133.36 49.4 136.08 46.36 136.08ZM56.76 198.24L62.64 198.24L62.64 175.84L56.76 175.84L56.76 198.24ZM59.72 172.2C61.72 172.2 63.12 170.96 63.12 169C63.12 167.08 61.72 165.8 59.72 165.8C57.64 165.8 56.32 167.08 56.32 169C56.32 170.96 57.64 172.2 59.72 172.2ZM77.12 198.8C79.08 198.8 80.64 198.32 81.88 197.96L80.88 193.68C80.28 193.92 79.4 194.16 78.68 194.16C76.68 194.16 75.6 192.96 75.6 190.4L75.6 180.48L81.16 180.48L81.16 175.84L75.6 175.84L75.6 169.8L70.76 169.8L70.08 175.84L66.6 176.12L66.6 180.48L69.76 180.48L69.76 190.44C69.76 195.4 71.8 198.8 77.12 198.8ZM93.96 198.8C95.92 198.8 97.48 198.32 98.72 197.96L97.72 193.68C97.12 193.92 96.24 194.16 95.52 194.16C93.52 194.16 92.44 192.96 92.44 190.4L92.44 180.48L98 180.48L98 175.84L92.44 175.84L92.44 169.8L87.6 169.8L86.92 175.84L83.44 176.12L83.44 180.48L86.6 180.48L86.6 190.44C86.6 195.4 88.64 198.8 93.96 198.8ZM104.28 181.24L107.56 181.24L108.72 172.6L108.92 167.08L102.92 167.08L103.12 172.6L104.28 181.24ZM122 198.8C127.8 198.8 130.92 195.68 130.92 191.72C130.92 187.6 127.64 186.08 124.68 184.96C122.28 184.08 120.24 183.48 120.24 181.84C120.24 180.56 121.2 179.68 123.24 179.68C124.88 179.68 126.44 180.48 128.04 181.6L130.68 178.04C128.84 176.6 126.32 175.28 123.08 175.28C117.96 175.28 114.72 178.12 114.72 182.12C114.72 185.88 117.88 187.6 120.72 188.68C123.08 189.6 125.4 190.36 125.4 192.04C125.4 193.44 124.4 194.4 122.16 194.4C120.04 194.4 118.16 193.48 116.16 191.96L113.48 195.68C115.72 197.52 119 198.8 122 198.8ZM178.102 198.8C179.462 198.8 180.422 198.56 181.102 198.28L180.382 193.92C179.982 194 179.822 194 179.582 194C179.022 194 178.422 193.56 178.422 192.2L178.422 166.32L172.542 166.32L172.542 191.96C172.542 196.12 173.982 198.8 178.102 198.8ZM194.502 198.8C200.102 198.8 205.262 194.48 205.262 187.04C205.262 179.6 200.102 175.28 194.502 175.28C188.862 175.28 183.742 179.6 183.742 187.04C183.742 194.48 188.862 198.8 194.502 198.8ZM194.502 194C191.422 194 189.742 191.28 189.742 187.04C189.742 182.84 191.422 180.08 194.502 180.08C197.542 180.08 199.262 182.84 199.262 187.04C199.262 191.28 197.542 194 194.502 194ZM218.062 207.96C225.542 207.96 230.262 204.52 230.262 200C230.262 196.08 227.302 194.4 221.902 194.4L218.062 194.4C215.462 194.4 214.542 193.76 214.542 192.6C214.542 191.64 214.942 191.16 215.502 190.64C216.502 191 217.542 191.16 218.382 191.16C223.222 191.16 227.062 188.64 227.062 183.56C227.062 182.16 226.622 180.92 226.062 180.16L229.862 180.16L229.862 175.84L221.822 175.84C220.862 175.52 219.702 175.28 218.382 175.28C213.662 175.28 209.382 178.12 209.382 183.36C209.382 186 210.822 188.12 212.382 189.24L212.382 189.4C211.022 190.36 209.902 191.92 209.902 193.56C209.902 195.44 210.742 196.6 211.942 197.36L211.942 197.56C209.822 198.72 208.742 200.32 208.742 202.2C208.742 206.16 212.782 207.96 218.062 207.96ZM218.382 187.52C216.462 187.52 214.902 186.04 214.902 183.36C214.902 180.76 216.422 179.32 218.382 179.32C220.382 179.32 221.942 180.76 221.942 183.36C221.942 186.04 220.382 187.52 218.382 187.52ZM218.942 204.2C215.702 204.2 213.622 203.16 213.622 201.32C213.622 200.36 214.062 199.48 215.062 198.68C215.902 198.88 216.822 198.96 218.142 198.96L220.902 198.96C223.302 198.96 224.622 199.4 224.622 201C224.622 202.72 222.342 204.2 218.942 204.2Z">
</path>
</g>
<path    stroke="rgba(214, 147, 64, 1)" stroke-width="2"    d="M245 187L595 187">
</path>
</svg>
