<svg xmlns="http://www.w3.org/2000/svg" xmlns:xlink="http://www.w3.org/1999/xlink" width="625" height="230" viewBox="0 0 625 230" fill="none">
<path    stroke="rgba(214, 147, 64, 1)" stroke-width="5"    d="M24 21L124 21">
</path>
<g >
<path     fill="#D69340"  d="M30.44 82.4L37.68 82.4L40.92 67.72C41.36 65.44 41.8 63.16 42.24 60.92L42.4 60.92C42.72 63.16 43.16 65.44 43.64 67.72L46.96 82.4L54.32 82.4L59.8 52.76L54.2 52.76L51.84 67.24C51.4 70.32 50.96 73.48 50.52 76.68L50.32 76.68C49.68 73.48 49.12 70.28 48.44 67.24L45 52.76L39.92 52.76L36.52 67.24C35.88 70.32 35.24 73.48 34.64 76.68L34.48 76.68C34.04 73.48 33.56 70.36 33.08 67.24L30.8 52.76L24.76 52.76L30.44 82.4ZM35.36 140.88C37.32 140.88 38.88 140.4 40.12 140.04L39.12 135.76C38.52 136 37.64 136.24 36.92 136.24C34.92 136.24 33.84 135.04 33.84 132.48L33.84 122.56L39.4 122.56L39.4 117.92L33.84 117.92L33.84 111.88L29 111.88L28.32 117.92L24.84 118.2L24.84 122.56L28 122.56L28 132.52C28 137.48 30.04 140.88 35.36 140.88ZM30.44 198.24L37.68 198.24L40.92 183.56C41.36 181.28 41.8 179 42.24 176.76L42.4 176.76C42.72 179 43.16 181.28 43.64 183.56L46.96 198.24L54.32 198.24L59.8 168.6L54.2 168.6L51.84 183.08C51.4 186.16 50.96 189.32 50.52 192.52L50.32 192.52C49.68 189.32 49.12 186.12 48.44 183.08L45 168.6L39.92 168.6L36.52 183.08C35.88 186.16 35.24 189.32 34.64 192.52L34.48 192.52C34.04 189.32 33.56 186.2 33.08 183.08L30.8 168.6L24.76 168.6L30.44 198.24ZM152.782 198.24L163.342 198.24C169.862 198.24 174.782 195.48 174.782 189.52C174.782 185.56 172.462 183.28 169.262 182.52L169.262 182.36C171.782 181.44 173.302 178.68 173.302 175.92C173.302 170.4 168.662 168.6 162.582 168.6L152.782 168.6L152.782 198.24ZM158.702 180.68L158.702 173.16L162.222 173.16C165.782 173.16 167.542 174.2 167.542 176.8C167.542 179.16 165.942 180.68 162.182 180.68L158.702 180.68ZM158.702 193.68L158.702 185.04L162.822 185.04C166.902 185.04 169.022 186.28 169.022 189.16C169.022 192.24 166.822 193.68 162.822 193.68L158.702 193.68Z">
</path>
<path     fill="#fff"  d="M73.52 82.96C76.28 82.96 79.12 82 81.32 80.48L79.32 76.88C77.68 77.88 76.12 78.4 74.32 78.4C70.96 78.4 68.56 76.52 68.08 72.88L81.88 72.88C82.04 72.32 82.16 71.24 82.16 70.16C82.16 63.92 78.96 59.44 72.8 59.44C67.48 59.44 62.36 63.96 62.36 71.2C62.36 78.6 67.24 82.96 73.52 82.96ZM67.96 68.92C68.44 65.68 70.52 64 72.88 64C75.8 64 77.12 65.92 77.12 68.92L67.96 68.92ZM92.56 82.96C93.92 82.96 94.88 82.72 95.56 82.44L94.84 78.08C94.44 78.16 94.28 78.16 94.04 78.16C93.48 78.16 92.88 77.72 92.88 76.36L92.88 50.48L87 50.48L87 76.12C87 80.28 88.44 82.96 92.56 82.96ZM109.12 82.96C111.6 82.96 114.32 82.12 116.44 80.24L114.12 76.36C112.88 77.4 111.4 78.16 109.76 78.16C106.52 78.16 104.2 75.44 104.2 71.2C104.2 67 106.52 64.24 109.96 64.24C111.2 64.24 112.24 64.76 113.36 65.68L116.16 61.96C114.52 60.48 112.4 59.44 109.64 59.44C103.56 59.44 98.2 63.76 98.2 71.2C98.2 78.64 102.96 82.96 109.12 82.96ZM130.04 82.96C135.64 82.96 140.8 78.64 140.8 71.2C140.8 63.76 135.64 59.44 130.04 59.44C124.4 59.44 119.28 63.76 119.28 71.2C119.28 78.64 124.4 82.96 130.04 82.96ZM130.04 78.16C126.96 78.16 125.28 75.44 125.28 71.2C125.28 67 126.96 64.24 130.04 64.24C133.08 64.24 134.8 67 134.8 71.2C134.8 75.44 133.08 78.16 130.04 78.16ZM145.72 82.4L151.6 82.4L151.6 67C153.16 65.28 154.6 64.48 155.88 64.48C158.04 64.48 159.04 65.68 159.04 69.16L159.04 82.4L164.88 82.4L164.88 67C166.48 65.28 167.92 64.48 169.2 64.48C171.32 64.48 172.32 65.68 172.32 69.16L172.32 82.4L178.16 82.4L178.16 68.44C178.16 62.8 176 59.44 171.24 59.44C168.36 59.44 166.16 61.2 164.08 63.36C163.04 60.88 161.16 59.44 157.96 59.44C155.04 59.44 152.96 61.04 151.08 63L150.96 63L150.52 60L145.72 60L145.72 82.4ZM194.04 82.96C196.8 82.96 199.64 82 201.84 80.48L199.84 76.88C198.2 77.88 196.64 78.4 194.84 78.4C191.48 78.4 189.08 76.52 188.6 72.88L202.4 72.88C202.56 72.32 202.68 71.24 202.68 70.16C202.68 63.92 199.48 59.44 193.32 59.44C188 59.44 182.88 63.96 182.88 71.2C182.88 78.6 187.76 82.96 194.04 82.96ZM188.48 68.92C188.96 65.68 191.04 64 193.4 64C196.32 64 197.64 65.92 197.64 68.92L188.48 68.92ZM53.36 140.88C58.96 140.88 64.12 136.56 64.12 129.12C64.12 121.68 58.96 117.36 53.36 117.36C47.72 117.36 42.6 121.68 42.6 129.12C42.6 136.56 47.72 140.88 53.36 140.88ZM53.36 136.08C50.28 136.08 48.6 133.36 48.6 129.12C48.6 124.92 50.28 122.16 53.36 122.16C56.4 122.16 58.12 124.92 58.12 129.12C58.12 133.36 56.4 136.08 53.36 136.08ZM63.76 198.24L69.64 198.24L69.64 175.84L63.76 175.84L63.76 198.24ZM66.72 172.2C68.72 172.2 70.12 170.96 70.12 169C70.12 167.08 68.72 165.8 66.72 165.8C64.64 165.8 63.32 167.08 63.32 169C63.32 170.96 64.64 172.2 66.72 172.2ZM84.12 198.8C86.08 198.8 87.64 198.32 88.88 197.96L87.88 193.68C87.28 193.92 86.4 194.16 85.68 194.16C83.68 194.16 82.6 192.96 82.6 190.4L82.6 180.48L88.16 180.48L88.16 175.84L82.6 175.84L82.6 169.8L77.76 169.8L77.08 175.84L73.6 176.12L73.6 180.48L76.76 180.48L76.76 190.44C76.76 195.4 78.8 198.8 84.12 198.8ZM100.96 198.8C102.92 198.8 104.48 198.32 105.72 197.96L104.72 193.68C104.12 193.92 103.24 194.16 102.52 194.16C100.52 194.16 99.44 192.96 99.44 190.4L99.44 180.48L105 180.48L105 175.84L99.44 175.84L99.44 169.8L94.6 169.8L93.92 175.84L90.44 176.12L90.44 180.48L93.6 180.48L93.6 190.44C93.6 195.4 95.64 198.8 100.96 198.8ZM111.28 181.24L114.56 181.24L115.72 172.6L115.92 167.08L109.92 167.08L110.12 172.6L111.28 181.24ZM129 198.8C134.8 198.8 137.92 195.68 137.92 191.72C137.92 187.6 134.64 186.08 131.68 184.96C129.28 184.08 127.24 183.48 127.24 181.84C127.24 180.56 128.2 179.68 130.24 179.68C131.88 179.68 133.44 180.48 135.04 181.6L137.68 178.04C135.84 176.6 133.32 175.28 130.08 175.28C124.96 175.28 121.72 178.12 121.72 182.12C121.72 185.88 124.88 187.6 127.72 188.68C130.08 189.6 132.4 190.36 132.4 192.04C132.4 193.44 131.4 194.4 129.16 194.4C127.04 194.4 125.16 193.48 123.16 191.96L120.48 195.68C122.72 197.52 126 198.8 129 198.8ZM185.102 198.8C186.462 198.8 187.422 198.56 188.102 198.28L187.382 193.92C186.982 194 186.822 194 186.582 194C186.022 194 185.422 193.56 185.422 192.2L185.422 166.32L179.542 166.32L179.542 191.96C179.542 196.12 180.982 198.8 185.102 198.8ZM201.502 198.8C207.102 198.8 212.262 194.48 212.262 187.04C212.262 179.6 207.102 175.28 201.502 175.28C195.862 175.28 190.742 179.6 190.742 187.04C190.742 194.48 195.862 198.8 201.502 198.8ZM201.502 194C198.422 194 196.742 191.28 196.742 187.04C196.742 182.84 198.422 180.08 201.502 180.08C204.542 180.08 206.262 182.84 206.262 187.04C206.262 191.28 204.542 194 201.502 194ZM225.062 207.96C232.542 207.96 237.262 204.52 237.262 200C237.262 196.08 234.302 194.4 228.902 194.4L225.062 194.4C222.462 194.4 221.542 193.76 221.542 192.6C221.542 191.64 221.942 191.16 222.502 190.64C223.502 191 224.542 191.16 225.382 191.16C230.222 191.16 234.062 188.64 234.062 183.56C234.062 182.16 233.622 180.92 233.062 180.16L236.862 180.16L236.862 175.84L228.822 175.84C227.862 175.52 226.702 175.28 225.382 175.28C220.662 175.28 216.382 178.12 216.382 183.36C216.382 186 217.822 188.12 219.382 189.24L219.382 189.4C218.022 190.36 216.902 191.92 216.902 193.56C216.902 195.44 217.742 196.6 218.942 197.36L218.942 197.56C216.822 198.72 215.742 200.32 215.742 202.2C215.742 206.16 219.782 207.96 225.062 207.96ZM225.382 187.52C223.462 187.52 221.902 186.04 221.902 183.36C221.902 180.76 223.422 179.32 225.382 179.32C227.382 179.32 228.942 180.76 228.942 183.36C228.942 186.04 227.382 187.52 225.382 187.52ZM225.942 204.2C222.702 204.2 220.622 203.16 220.622 201.32C220.622 200.36 221.062 199.48 222.062 198.68C222.902 198.88 223.822 198.96 225.142 198.96L227.902 198.96C230.302 198.96 231.622 199.4 231.622 201C231.622 202.72 229.342 204.2 225.942 204.2Z">
</path>
</g>
<path    stroke="rgba(214, 147, 64, 1)" stroke-width="2"    d="M252 187L602 187">
</path>
</svg>
